<?xml version="1.0" encoding="utf-8"?>
<!-- Generator: Adobe Illustrator 24.2.1, SVG Export Plug-In . SVG Version: 6.00 Build 0)  -->
<svg version="1.1" id="Layer_1" xmlns="http://www.w3.org/2000/svg" xmlns:xlink="http://www.w3.org/1999/xlink" x="0px" y="0px"
	 viewBox="0 0 500 500" style="enable-background:new 0 0 500 500;" xml:space="preserve">
<style type="text/css">
	.st0{fill:#000100;}
</style>
<path class="st0" d="M420,261.6c0-1.5-0.7-2.9-1.9-3.8c-1.2-0.9-2.7-1.2-4.2-0.8c-2,0.6-13.2,2.1-29.8,4.2l-78.3-25.7
	c-0.4-15-5.3-25.2-9.6-31.4l98-15.4c2.3-0.4,4-2.4,4-4.7v-39.7c0-1.3-0.5-2.6-1.5-3.4c-0.9-0.9-2.1-1.3-3.5-1.3l-149.4,9.1
	L114,177.8v9.7L245.1,158l143.6-8.7V180L89.5,227.2V193l8.4-1.9v-9.8l-14.2,3.2c-2.2,0.5-3.7,2.4-3.7,4.6V318c0,2,1.2,3.8,3.1,4.4
	l152.4,57.7c0.5,0.2,1.1,0.3,1.7,0.3c0.2,0,0.5,0,0.7-0.1l134.8-20.4v-9.6l-135,20.4L89.5,314.7v-71.1l148.9,44.3
	c0.6,0.2,1.3,0.2,1.9,0.2c15.5-1.8,140.3-16.2,170.3-20.8c0.1,21.7,0,64.1,0,77.4l-21.7,3.3v9.6l27.1-4.1c2.3-0.4,4-2.3,4-4.7
	C420,348.7,420.1,284,420,261.6z M96.3,235.7l51.3-8.1c1.2,1.1,3.2,3.3,5.3,6.9l-38.4,6.5L96.3,235.7z M135,247.2l21.5-3.7
	c0.9,3.1,1.8,6.6,2.2,10.7L135,247.2z M247.2,277.7c-2.4,0.3-4.8,0.6-7.1,0.8l-71.8-21.3c-0.4-5.8-1.1-10.9-2.4-15.2l81.2-13.8
	V277.7z M250.3,217.9l-87.8,15c-1.3-2.8-2.7-5.1-4.1-7l127-20c2.9,2.9,9.4,11.3,10.7,26.5l-43.5-14.3
	C251.9,217.9,251.1,217.8,250.3,217.9z M256.7,276.6v-47.1L362.1,264C331,267.9,291.1,272.6,256.7,276.6z"/>
</svg>
