<?xml version="1.0" encoding="utf-8"?>
<!-- Generator: Adobe Illustrator 24.2.1, SVG Export Plug-In . SVG Version: 6.00 Build 0)  -->
<svg version="1.1" id="Layer_1" xmlns="http://www.w3.org/2000/svg" xmlns:xlink="http://www.w3.org/1999/xlink" x="0px" y="0px"
	 viewBox="0 0 500 500" style="enable-background:new 0 0 500 500;" xml:space="preserve">
<style type="text/css">
	.st0{fill:#1D1D1B;}
</style>
<g>
	<path class="st0" d="M285.31,242.63l-15.36-1.75c7.49-7.6,22.52-19.3,44.77-19.3c22.14,0,37.19,11.68,44.72,19.28l-14.62,1.67
		l1.08,9.44l29.07-3.31l-3.47-29.58l-9.44,1.11l1.3,11.15c-9.38-8.6-25.6-19.28-48.64-19.28c-22.44,0-38.36,10.14-47.85,18.61
		l1.21-10.38l-9.44-1.11l-3.47,29.61l29.07,3.27L285.31,242.63z"/>
	<path class="st0" d="M142.15,269.6c11.31,0.17,16.46,0.24,25.06,0.24c7.11,0,16.61-0.06,33.96-0.15c10.61,0,19.71-4.07,25.62-11.44
		c5.76-7.18,7.84-16.73,5.68-26.35l-9.44-37.41c-9.53-33.2-14.03-50.48-14.03-50.48c-6.15-24.8-25.69-39.61-52.26-39.61
		c-27.21,0-49.34,18.09-49.34,40.35v21.96h9.51v-21.96c0-17,17.87-30.84,39.83-30.84c21.9,0,37.99,12.11,43.04,32.44
		c0,0,4.51,17.37,14.06,50.62l9.36,37.14c1.49,6.65,0.09,13.28-3.85,18.19c-4.07,5.07-10.51,7.88-18.22,7.88
		c-38.25,0.2-38.23,0.2-58.91-0.09c-13.97,0-25.32-9.66-25.32-21.53v-55.68h-9.51v55.68C107.39,255.67,123.01,269.6,142.15,269.6z"
		/>
	<path class="st0" d="M352.26,279.46h-204.5c-22.26,0-40.35,19.62-40.35,43.71c0,16.05,8.12,29.95,20.04,37.56v18.97
		c0,8.77,7.6,15.9,16.92,15.9c9.34,0,16.96-7.13,16.96-15.9v-12.82h106.88v-9.51H161.34h-13.58c-17,0-30.84-15.35-30.84-34.2
		c0-18.86,13.84-34.2,30.84-34.2h204.5c17,0,30.82,15.34,30.82,34.2c0,18.86-13.82,34.2-30.82,34.2h-13.21h-54.67v9.51h54.67v12.82
		c0,8.77,7.62,15.9,16.98,15.9c9.34,0,16.94-7.13,16.94-15.9v-19.23c11.7-7.65,19.62-21.44,19.62-37.3
		C392.59,299.07,374.5,279.46,352.26,279.46z M136.97,366.88h10.79h4.07v12.82c0,3.53-3.34,6.39-7.45,6.39
		c-4.09,0-7.41-2.86-7.41-6.39V366.88z M363.46,379.7c0,3.45-3.4,6.39-7.43,6.39c-4.12,0-7.47-2.86-7.47-6.39v-12.82h3.7h11.2V379.7
		z"/>
</g>
</svg>
