<?xml version="1.0" encoding="utf-8"?>
<!-- Generator: Adobe Illustrator 24.2.1, SVG Export Plug-In . SVG Version: 6.00 Build 0)  -->
<svg version="1.1" id="Layer_1" xmlns="http://www.w3.org/2000/svg" xmlns:xlink="http://www.w3.org/1999/xlink" x="0px" y="0px"
	 viewBox="0 0 500 500" style="enable-background:new 0 0 500 500;" xml:space="preserve">
<style type="text/css">
	.st0{fill:#000100;}
</style>
<g>
	<polygon class="st0" points="236.55,266.86 208.35,266.86 208.35,243.73 199.38,243.73 199.38,296.97 208.35,296.97 208.35,274.92 
		236.55,274.92 236.55,296.97 245.54,296.97 245.54,243.73 236.55,243.73 	"/>
	<path class="st0" d="M302.57,261.92c0-11.56-7.84-18.19-21.46-18.19h-21.59v53.24h8.97v-16.05h12.61c0.83,0,1.67,0,2.43-0.07
		l9.76,16.13h10.2l-11.95-17.8C298.61,276.45,302.57,270.43,302.57,261.92z M281.1,272.86h-12.61v-21.07h12.61
		c8.21,0,12.93,3.35,12.93,10.35C294.03,269.37,289.31,272.86,281.1,272.86z"/>
	<path class="st0" d="M337.87,176.26l0.13,20.62c-1.02,1.69-10.01,5.74-26.23,5.74c-16.26,0-25.27-4.05-26.16-5.16v-21.2
		c0.01-20.29-71.21-20.27-71.23,0l0.11,20.64c-1.01,1.67-9.98,5.72-26.18,5.72c-16.24,0-25.23-4.05-26.12-5.16v-21.2
		c0-20.27-71.21-20.3-71.21,0v162.7h318.04h0.02v-162.7C409.04,155.96,337.87,155.99,337.87,176.26z M399.51,329.45H100.49
		l-0.11-152.63c1.01-1.69,9.96-5.72,26.18-5.72c16.26,0,25.23,4.03,26.12,5.16v21.2c0,20.27,71.21,20.3,71.21,0l-0.11-20.64
		c1-1.69,9.97-5.72,26.23-5.72c16.23,0,25.19,4.03,26.08,5.16v21.2c0,20.27,71.28,20.3,71.28,0l-0.11-20.64
		c1-1.69,9.95-5.72,26.19-5.72c16.21,0,25.17,4.03,26.06,5.16V329.45z"/>
</g>
</svg>
