<?xml version="1.0" encoding="utf-8"?>
<!-- Generator: Adobe Illustrator 24.2.1, SVG Export Plug-In . SVG Version: 6.00 Build 0)  -->
<svg version="1.1" id="Layer_1" xmlns="http://www.w3.org/2000/svg" xmlns:xlink="http://www.w3.org/1999/xlink" x="0px" y="0px"
	 viewBox="0 0 500 500" style="enable-background:new 0 0 500 500;" xml:space="preserve">
<style type="text/css">
	.st0{fill:#1D1D1B;}
</style>
<g>
	<path class="st0" d="M234.56,197.46l-15.36-1.75c7.49-7.6,22.51-19.3,44.77-19.3c22.14,0,37.19,11.69,44.72,19.3l-14.62,1.65
		l1.08,9.44l29.08-3.31l-3.48-29.57l-9.44,1.11l1.3,11.15c-9.38-8.6-25.6-19.28-48.63-19.28c-22.44,0-38.36,10.14-47.86,18.61
		l1.21-10.38l-9.44-1.11l-3.47,29.61l29.07,3.27L234.56,197.46z"/>
	<polygon class="st0" points="281.54,251.69 281.54,270.72 437.59,270.72 437.59,323.44 456.62,323.44 456.62,251.69 	"/>
	<path class="st0" d="M52.9,290.15c0-18.47,10.48-33.48,23.35-33.48h130.91v-9.51H76.25c-18.11,0-32.86,19.28-32.86,42.99
		c0,23.69,14.75,42.95,32.86,42.95h24.02v-9.51H76.25C63.37,323.58,52.9,308.59,52.9,290.15z"/>
	<path class="st0" d="M237.79,247.16h-14.47v9.51h14.47c12.87,0,23.35,15.01,23.35,33.48c0,18.45-10.48,33.44-23.35,33.44H116.43
		v9.51H237.8c18.11,0,32.86-19.26,32.86-42.95C270.66,266.44,255.91,247.16,237.79,247.16z"/>
</g>
</svg>
