<?xml version="1.0" encoding="utf-8"?>
<!-- Generator: Adobe Illustrator 24.2.1, SVG Export Plug-In . SVG Version: 6.00 Build 0)  -->
<svg version="1.1" id="Layer_1" xmlns="http://www.w3.org/2000/svg" xmlns:xlink="http://www.w3.org/1999/xlink" x="0px" y="0px"
	 viewBox="0 0 500 500" style="enable-background:new 0 0 500 500;" xml:space="preserve">
<path d="M297.6,253.4c5.5-8.6,8.3-18.1,8.2-27.5c-0.1-10.6-3.3-20.7-9.2-29.3c3.9-6.3,5.8-13,5.8-20.1c0-27.6-30.8-49.2-70.1-49.2
	c-1.6,0-2.8,1.3-2.8,2.8v4c0,1.6,1.2,2.8,2.8,2.8c33.9,0,60.5,17.4,60.5,39.7c0,4.3-1,8.4-2.8,12.3c-6.6-6.5-12.3-9.9-14-10.8
	c-9.5-5.5-25.7-9.3-40.8-9.4c-7.3,0-32.2,1-44.6,13.4c-4.2,4.2-6.4,9.1-6.4,14.6c0,19.3,25.9,28,51.6,28c14.6,0,28.3-2.8,37.3-7.7
	c5.9-2.8,11.8-7,17.2-12.4c3.9,6.6,5.9,14,6,21.6c0.1,6.4-1.5,12.9-4.6,18.8c-1.9-2.2-4.2-4.7-6.6-6.6c-2.4-2.1-6.1-4.3-10.8-6.7
	c-0.3-0.2-0.7-0.3-1.6-0.8c-0.2-0.1-0.4-0.2-0.9-0.4c-9.8-4.3-19.7-5.2-31.6-5.2c-24.8,0-51.6,8.8-51.6,28c0,5.6,2.4,10.9,6.8,15.1
	c5.8,5.6,15.4,9.7,26.7,11.6c-18.7,3.2-34.7,11.8-34.7,26.6c0,19.3,25.9,28,51.6,28c15.2,0,37-6.3,51.1-19.9
	c1.2,3.1,1.8,6.4,1.8,9.9c0,22.2-26.6,39.6-60.5,39.6c-1.6,0-2.8,1.3-2.8,2.8v4c0,1.6,1.2,2.8,2.8,2.8c39.3,0,70.1-21.6,70.1-49.3
	c0-6.3-1.5-12.4-4.6-18.1c5.2-8.3,7.9-17.6,7.8-27C304.6,270.1,302.1,261.2,297.6,253.4z M268.7,208.2c-7.8,4.3-19.8,6.7-33,6.7
	c-20.3,0-41.9-6.4-41.9-18.3c0-2.9,1.2-5.4,3.5-7.8c6.5-6.4,21.3-10.6,37.8-10.6h0.6c12.8,0.1,27.4,3.4,35.6,8.2
	c3,1.6,8.1,5.2,13,10.3C279.4,201.7,274,205.7,268.7,208.2z M202,261.3c-2.6-2.6-3.9-5.3-3.9-8.2c0-11.9,21.6-18.4,41.9-18.4
	c10.6,0,19.3,0.7,27.1,4.1c0.4,0.2,0.7,0.4,1.5,0.7l0.9,0.4c5.3,2.7,7.9,4.5,9.3,5.7c2.6,2,5,4.8,6.9,7.3
	c-3.3,3.4-10.3,9.8-19.7,13.6c-9.6,3.5-14.2,4.4-26.2,4.9C224.1,271.9,208.8,267.9,202,261.3z M239,324.7
	c-20.3,0-41.9-6.4-41.9-18.3c0-11.9,21.6-18.4,41.9-18.4c13.6,0,33.4,4.7,46,17.9C273.4,318.3,253.4,324.7,239,324.7z M290.6,297.9
	c-10.3-10.1-24.2-15.6-36.8-18c5.2-0.8,9.7-2.1,15.8-4.4c9.5-3.9,17.2-10.2,21.4-14.2c2.6,5.6,4.1,11.8,4.1,18.1
	C295.1,285.7,293.6,292,290.6,297.9z"/>
<path d="M326.8,92.7H173.5c-1.1,0-2,0.9-2,2V405c0,1.1,0.9,2,2,2h153.3c1.1,0,2-0.9,2-2V94.7C328.8,93.6,327.9,92.7,326.8,92.7z
	 M179.5,399V100.8h141.2V399H179.5z"/>
</svg>
