<?xml version="1.0" encoding="utf-8"?>
<!-- Generator: Adobe Illustrator 24.2.1, SVG Export Plug-In . SVG Version: 6.00 Build 0)  -->
<svg version="1.1" id="Layer_1" xmlns="http://www.w3.org/2000/svg" xmlns:xlink="http://www.w3.org/1999/xlink" x="0px" y="0px"
	 viewBox="0 0 500 500" style="enable-background:new 0 0 500 500;" xml:space="preserve">
<style type="text/css">
	.st0{fill:#1D1D1B;}
</style>
<g>
	<path class="st0" d="M375.79,121.3h10.18c-3.6-11.96-14.6-20.75-27.72-20.75h-52.09v9.51h52.09
		C366.03,110.06,372.65,114.7,375.79,121.3z"/>
	<path class="st0" d="M141.75,156.24h52.09c16.03,0,29.07-13.06,29.07-29.09c0-16.03-13.04-29.07-29.07-29.07h-5.57v9.51h5.57
		c10.79,0,19.56,8.77,19.56,19.56c0,10.79-8.77,19.58-19.56,19.58h-52.09c-16.03,0-29.07,13.04-29.07,29.07
		c0,16.03,13.04,29.07,29.07,29.07h52.09c10.79,0,19.56,8.79,19.56,19.58s-8.77,19.56-19.56,19.56h-52.09
		c-16.03,0-29.07,13.06-29.07,29.09c0,16.03,13.04,29.09,29.07,29.09h52.09c10.79,0,19.56,8.77,19.56,19.56
		c0,10.77-8.77,19.54-19.56,19.54h-52.09c-16.03,0-29.07,13.06-29.07,29.09c0,16.01,13.04,29.06,29.07,29.06h52.09v-9.51h-52.09
		c-10.79,0-19.56-8.77-19.56-19.54c0-10.79,8.77-19.58,19.56-19.58h52.09c16.03,0,29.07-13.04,29.07-29.05
		c0-16.03-13.04-29.07-29.07-29.07h-52.09c-10.79,0-19.56-8.79-19.56-19.58c0-10.79,8.77-19.58,19.56-19.58h52.09
		c16.03,0,29.07-13.04,29.07-29.08c0-16.03-13.04-29.09-29.07-29.09h-52.09c-10.79,0-19.56-8.77-19.56-19.56
		S130.96,156.24,141.75,156.24z"/>
	<rect x="141.75" y="98.07" class="st0" width="29.87" height="9.51"/>
	<path class="st0" d="M286.6,372.87c0-10.79,8.77-19.58,19.56-19.58h17.72v-9.51h-17.72c-16.03,0-29.07,13.06-29.07,29.09
		c0,16.01,13.04,29.06,29.07,29.06h52.09v-9.51h-52.09C295.37,392.41,286.6,383.64,286.6,372.87z"/>
	<path class="st0" d="M358.25,295.14h-52.09c-10.79,0-19.56-8.77-19.56-19.56c0-10.79,8.77-19.58,19.56-19.58h52.09
		c16.03,0,29.07-13.06,29.07-29.09c0-16.03-13.04-29.08-29.07-29.08h-52.09c-10.79,0-19.56-8.77-19.56-19.56s8.77-19.58,19.56-19.58
		h52.09c13.12,0,24.11-8.79,27.72-20.75h-10.18c-3.14,6.6-9.75,11.24-17.54,11.24h-52.09c-16.03,0-29.07,13.06-29.07,29.09
		c0,16.03,13.04,29.07,29.07,29.07h52.09c10.79,0,19.56,8.77,19.56,19.56s-8.77,19.58-19.56,19.58h-52.09
		c-16.03,0-29.07,13.06-29.07,29.09c0,16.03,13.04,29.08,29.07,29.08h52.09c10.79,0,19.56,8.79,19.56,19.58
		c0,10.77-8.77,19.54-19.56,19.54h-17.72v9.51h17.72c16.03,0,29.07-13.04,29.07-29.05C387.32,308.2,374.28,295.14,358.25,295.14z"/>
</g>
</svg>
