<?xml version="1.0" encoding="utf-8"?>
<!-- Generator: Adobe Illustrator 24.2.1, SVG Export Plug-In . SVG Version: 6.00 Build 0)  -->
<svg version="1.1" id="Layer_1" xmlns="http://www.w3.org/2000/svg" xmlns:xlink="http://www.w3.org/1999/xlink" x="0px" y="0px"
	 viewBox="0 0 500 500" style="enable-background:new 0 0 500 500;" xml:space="preserve">
<style type="text/css">
	.st0{fill:#000100;}
</style>
<path class="st0" d="M344.25,320.29v81.47h-21.92c-0.07-52.65,7.73-119.43,21.92-188.21v90.68h9.51V93.49
	c0-2.62-2.14-4.76-4.76-4.76H150.99c-2.62,0-4.76,2.14-4.76,4.76v210.74h9.51V148.31c5.98,9.96,13.95,25.95,17.55,47.99
	c8.03,48.86,7.47,118.04-1.54,205.47h-16.01v-81.48h-9.51v86.24c0,2.62,2.14,4.76,4.76,4.76h198.02c2.62,0,4.76-2.14,4.76-4.76
	v-86.24H344.25z M277.52,98.24c0.07,0.61,0.15,1.11,0.24,1.82c8.73,62.4,5.37,79.29,0.95,82.08c-9.99-4.94-28.57-63.91-34.02-83.9
	H277.52z M177.5,401.75c8.97-87.65,9.51-157.12,1.45-206.38c-4.94-30.04-17.61-49.29-23.2-57.68V98.24h11.96
	c5.29,11.2,12.08,42.9,16.74,64.72c5.65,26.01,8.66,56.79,8.97,91.49c0.35,30.5-0.37,89.58-8.4,147.3H177.5z M207.82,401.76h-17.05
	c7.99-57.81,8.69-116.81,8.38-147.36c-0.33-35.07-3.4-66.25-9.12-92.64c-6.8-31.82-11.72-52.72-16.09-63.52h24.15
	c0.33,2.9,0.71,6.3,1.17,10.65c2.49,22.92,7.1,65.6,12.82,105.17c5.39,37.41,13.77,62.96,21.14,85.49
	c8.6,26.29,16.05,49.08,17.61,84.16c-0.41-0.87-0.82-1.77-1.23-2.66c-2.9-6.3-5.76-12.54-6.47-14.17
	c-14.6-33.27-20.45-36.67-25.56-37.4c-3.47-0.5-6.78,0.84-8.9,3.64C199.31,345.54,204.25,382.03,207.82,401.76z M271.26,401.75
	h-57.61v0.01c-4.83-26.31-7.3-56.07-0.41-65.21c0.87-1.13,2.04-1.65,3.49-1.43c2.84,0.41,8.16,4.37,21.16,34.03
	c0.71,1.63,3.59,7.91,6.52,14.27c3.03,6.58,6.09,13.23,6.76,14.81c0.5,1.25,1.75,1.93,3.2,1.69c1.32-0.28,2.28-1.45,2.28-2.81
	v-10.37c-1.28-37.79-9.05-61.51-18.02-88.97c-7.32-22.33-15.59-47.63-20.92-84.55c-5.7-39.46-10.31-82.07-12.78-104.96
	c-0.43-3.99-0.8-7.24-1.1-10.03h15.23c1.38,29.52,15.53,133.74,31.95,196.99h0.02c1.99,8.4,4.33,16.57,6.82,25.23
	C264.95,345.25,272.01,371,271.26,401.75z M276.97,401.77v-0.01c0.74-31.54-6.43-57.7-13.62-82.87c-2.45-8.62-4.79-16.76-6.78-25.04
	l-2.77,0.67l2.77-0.72c-15.99-61.55-30.36-166.55-31.77-195.54h14.08c4.74,17.13,23.63,82.26,37.29,89c1.06,0.52,2.01,0.72,2.9,0.72
	c1.13,0,2.16-0.35,3.1-0.82c8.6-6.32,8.97-32.6,1.26-87.87c-0.06-0.41-0.09-0.67-0.15-1.04h11.85
	c2.19,19.58,10.05,100.74-5.91,129.56c-2.82,5.2-7.21,11.26-12.22,11.26c-0.2,0-0.39-0.02-0.58-0.04
	c-6.58-0.6-13.84-11.65-19.91-30.32l-5.43,1.78c7.11,21.85,15.48,33.36,24.82,34.22c0.33,0.04,0.71,0.06,1.08,0.06
	c4.57,0,10.96-2.67,17.24-14.21c16.51-29.82,8.97-111.13,6.65-132.31h33.22c-2.99,29.58-8.23,62.01-15.98,109.87
	c-3.44,21.25-7.38,45.48-11.8,73.77c-1.32,9.01-2.41,15.74-3.51,22.52c-2.86,17.7-5.87,36.34-13.36,97.36H276.97z M295.19,401.76
	c7.41-60.34,10.38-78.86,13.25-96.44c1.11-6.84,2.19-13.56,3.53-22.59c4.42-28.26,8.34-52.46,11.78-73.71
	c7.82-48.24,13.08-80.88,16.09-110.78h4.42v88.52c-17.76,77.97-27.74,155.44-27.64,215H295.19z"/>
</svg>
