<?xml version="1.0" encoding="utf-8"?>
<!-- Generator: Adobe Illustrator 24.2.1, SVG Export Plug-In . SVG Version: 6.00 Build 0)  -->
<svg version="1.1" id="Layer_1" xmlns="http://www.w3.org/2000/svg" xmlns:xlink="http://www.w3.org/1999/xlink" x="0px" y="0px"
	 viewBox="0 0 500 500" style="enable-background:new 0 0 500 500;" xml:space="preserve">
<style type="text/css">
	.st0{fill:#000100;}
</style>
<g>
	<path class="st0" d="M386.11,328.51c-0.59-0.68-58.42-69.72,0.06-140.7c0.82-1,1.19-2.28,1.04-3.57
		c-3.05-26.86-28.18-46.15-29.26-46.95c-1.34-1.02-3.1-1.23-4.7-0.6c-0.26,0.13-28.7,11.69-50.36-2.82
		c-21.4-14.47-20.75-37.32-20.71-38.29c0.07-1.97-1.08-3.81-2.9-4.59c-0.63-0.28-15.66-6.02-28.81-6.21
		c-0.13-0.02-0.18-0.15-0.32-0.15c-13.89-0.35-28.79,5.96-29.41,6.24c-1.84,0.78-3.01,2.6-2.92,4.59
		c0.02,0.24,0.8,23.74-20.75,38.29c-21.59,14.53-50.03,2.95-50.31,2.82c-1.6-0.65-3.38-0.41-4.72,0.59
		c-1.06,0.82-26.19,20.16-29.26,46.98c-0.15,1.28,0.22,2.56,1.04,3.57c7.8,9.45,13.43,18.84,17.56,28.01v-0.18h10.09
		c-4.27-10.57-10.26-21.36-18.97-32.25c2.97-17.87,17.93-32.23,23.33-36.93c8.49,2.94,34.76,9.98,56.55-4.74
		c20.82-14.04,24.32-34.81,24.87-43.06c4.61-1.65,14.16-4.09,22.61-4.42c0.13,0,0.17,0.11,0.17,0.11c8.55-0.82,18.06,2.77,22.7,4.42
		c0.54,8.23,4.01,29,24.84,43.08c21.85,14.66,48.1,7.62,56.61,4.72c5.41,4.68,20.36,19,23.31,36.89
		c-55.75,69.61-9.48,137.16-0.15,149.38c-1.56,5.93-7.21,23.61-21.9,35.97c-25.8-7.8-81.29-9.16-105.41,31.38
		c-24.19-40.65-79.71-39.33-105.46-31.45c-14.69-12.35-20.36-30-21.9-35.93c7.1-9.34,35.59-50.92,24-101h-9.72
		c13.69,52.39-21.16,94.54-23.07,96.77c-0.93,1.1-1.32,2.55-1.06,3.96c0.22,1.15,5.52,28.14,27.87,45.29
		c1.25,0.97,2.95,1.21,4.46,0.72c19.95-6.93,80.87-11.78,100.48,33.9l0.02,0.04l0.02,0.04c0.45,1.06,1.28,1.76,2.25,2.25
		c0.11,0.06,0.13,0.22,0.26,0.28c0.6,0.26,1.23,0.39,1.86,0.39c0,0,0.26-0.11,0.41-0.13c0.5-0.04,1-0.09,1.47-0.3
		c0.09-0.04,0.09-0.15,0.17-0.18c1-0.48,1.86-1.19,2.32-2.29c19.49-45.63,80.44-40.87,100.47-33.92c1.56,0.5,3.2,0.24,4.46-0.72
		c22.35-17.15,27.63-44.18,27.85-45.33C387.45,331.07,387.06,329.6,386.11,328.51z"/>
	<path class="st0" d="M164.57,303.55c0.15,0.72,3.45,17.78,17.59,28.57c1.26,0.99,2.92,1.24,4.44,0.72
		c11.61-4.05,47.13-6.89,58.48,19.45l0.02,0.02c0.02,0.02,0.02,0.04,0.04,0.06c0.45,1.06,1.27,1.75,2.21,2.25
		c0.13,0.06,0.15,0.22,0.28,0.28c0.61,0.26,1.24,0.39,1.88,0.39c0.15,0,0.28-0.11,0.43-0.13c0.48-0.04,0.99-0.09,1.45-0.3
		c0.09-0.04,0.09-0.15,0.17-0.18c1-0.48,1.86-1.19,2.32-2.27c5.43-12.67,16.42-18.48,27.68-20.77v-9.7
		c-12.17,2.1-24.08,7.91-31.97,19.43c-15.46-22.87-47.43-22.79-63.5-18.32c-7.34-6.56-10.55-15.4-11.67-19.3
		c6.89-9.34,32.66-49.69-0.15-91.36c1.86-9.12,9.1-16.61,12.58-19.77c6.32,1.97,21.81,5.39,34.89-3.42
		c12.3-8.28,15.12-20.32,15.75-26.27c2.92-0.97,7.5-2.23,11.89-2.16l0.02-0.02c0.04,0.02,0.07,0.06,0.07,0.06s0.11,0,0.15,0
		c4.51-0.18,8.99,1.23,11.93,2.17c0.63,5.94,3.45,17.96,15.73,26.25c13.08,8.81,28.59,5.42,34.89,3.45
		c3.49,3.16,10.74,10.65,12.6,19.77c-32.83,41.63-7.04,82.02-0.15,91.36c-1.13,3.88-4.33,12.72-11.69,19.28
		c-4.16-1.15-9.45-1.99-15.21-2.25v9.62c6.08,0.33,11.39,1.3,14.7,2.43c1.49,0.5,3.16,0.26,4.46-0.72
		c14.14-10.83,17.44-27.85,17.59-28.57c0.26-1.41-0.13-2.88-1.06-3.96c-1.43-1.67-34.31-41.22,0.04-82.84
		c0.84-0.98,1.21-2.26,1.06-3.54c-1.95-17.05-17.78-29.24-18.45-29.74c-1.38-1.02-3.12-1.23-4.72-0.6
		c-0.15,0.06-16.44,6.67-28.74-1.56c-12.02-8.12-11.72-21.03-11.7-21.55c0.09-2.01-1.08-3.85-2.92-4.61
		c-0.41-0.19-9.47-3.9-18.19-3.86l-0.15-0.07c-9.03-0.13-18.19,3.72-18.58,3.9c-1.82,0.76-2.97,2.6-2.92,4.57
		c0.02,0.54,0.3,13.47-11.72,21.59c-12.17,8.19-28.57,1.6-28.72,1.52c-1.6-0.63-3.36-0.43-4.72,0.6
		c-0.67,0.5-16.5,12.69-18.45,29.74c-0.15,1.28,0.22,2.56,1.06,3.57c34.33,41.65,1.47,81.16,0.04,82.83
		C164.7,300.67,164.31,302.14,164.57,303.55z"/>
</g>
</svg>
