<?xml version="1.0" encoding="utf-8"?>
<!-- Generator: Adobe Illustrator 24.2.1, SVG Export Plug-In . SVG Version: 6.00 Build 0)  -->
<svg version="1.1" id="Layer_1" xmlns="http://www.w3.org/2000/svg" xmlns:xlink="http://www.w3.org/1999/xlink" x="0px" y="0px"
	 viewBox="0 0 500 500" style="enable-background:new 0 0 500 500;" xml:space="preserve">
<style type="text/css">
	.st0{fill:#1D1D1B;}
</style>
<g>
	<path class="st0" d="M410.79,318.07l-3.62,3.6c0.19-9.49-1.76-22.42-11.39-34.65c-9.42-11.91-21.16-16.9-30.32-19.04l3.92-2.41
		l-4.98-8.1l-19.82,12.19l12.06,19.4l8.06-5.02l-4.66-7.52c7.78,1.26,19.34,5.09,28.27,16.4c8.88,11.28,9.9,23.39,9.33,31.27
		l-5.85-5.89l-6.76,6.69l16.07,16.16l16.42-16.35L410.79,318.07z"/>
	<path class="st0" d="M221.67,127.56l-4.5-7.62c7.77,1.47,19.28,5.57,27.92,17c8.64,11.44,9.4,23.59,8.66,31.43l-5.74-6l-6.87,6.54
		l15.7,16.52l16.77-16.01l-6.58-6.87l-3.7,3.53c0.41-9.49-1.28-22.44-10.66-34.85c-9.16-12.11-20.84-17.33-29.98-19.65l4.05-2.36
		l-4.79-8.21l-20.08,11.74l11.63,19.65L221.67,127.56z"/>
	<path class="st0" d="M118.04,215.43h9.51v-54.32L97.1,126.82c-4.42-4.4-5.09-5.78-5.09-6.21c0-1.21,4.52-5.67,6.71-7.82
		c4.98-5.01,10.65-6.07,14.53-6.07c5.16,0,10.25,1.82,14.36,5.13l56.75,45.7c7.73,5.85,11.8,12.35,14.55,23.2
		c0,0,3.4,12.74,12.24,44.27l8.17,32.43c1.28,5.63,0.09,11.24-3.23,15.42c-3.45,4.31-8.94,6.69-15.49,6.69
		c-33.38,0.15-33.35,0.13-51.53-0.15c-11.87,0-21.51-8.14-21.51-18.15v-29.67h-9.51v29.67c0,15.25,13.92,27.66,30.95,27.66
		c10.64,0.17,15.05,0.24,23.63,0.24c6.04,0,14.16-0.04,28.01-0.09c9.46,0,17.59-3.64,22.89-10.27c5.12-6.43,6.98-14.98,5.03-23.56
		l-8.25-32.68c-8.82-31.49-12.22-44.22-12.22-44.22c-3.23-12.78-8.6-21.27-17.87-28.29l-56.64-45.61
		c-12.17-9.79-30.8-9.27-41.59,1.6c-5.5,5.46-9.48,9.4-9.49,14.55c0,4.72,3.42,8.51,7.69,12.74l27.85,31.38V215.43z"/>
	<path class="st0" d="M332.72,297.62h-178.8c-19.78,0-35.89,17.41-35.89,38.81c0,15.98,8.97,29.7,21.74,35.67v15.23
		c0,8.38,7.25,15.2,16.14,15.2c8.92,0,16.16-6.82,16.16-15.2v-12.06h87.17v-9.51H153.92c-14.55,0-26.38-13.15-26.38-29.33
		c0-16.16,11.83-29.3,26.38-29.3h178.81c14.53,0,26.36,13.13,26.36,29.3c0,16.18-11.83,29.33-26.36,29.33H275.4v9.51h43.23v12.06
		c0,8.38,7.26,15.2,16.18,15.2c8.92,0,16.16-6.82,16.16-15.2V369.7c10.5-6.8,17.63-19.1,17.63-33.27
		C368.6,315.02,352.51,297.62,332.72,297.62z M149.27,375.62h13.28v11.7c0,3.14-2.99,5.68-6.65,5.68c-3.66,0-6.63-2.55-6.63-5.68
		V375.62z M341.46,387.32c0,3.14-2.99,5.68-6.65,5.68c-3.68,0-6.67-2.55-6.67-5.68v-11.7h13.32V387.32z"/>
</g>
</svg>
