<?xml version="1.0" encoding="utf-8"?>
<!-- Generator: Adobe Illustrator 24.2.1, SVG Export Plug-In . SVG Version: 6.00 Build 0)  -->
<svg version="1.1" id="Layer_1" xmlns="http://www.w3.org/2000/svg" xmlns:xlink="http://www.w3.org/1999/xlink" x="0px" y="0px"
	 viewBox="0 0 500 500" style="enable-background:new 0 0 500 500;" xml:space="preserve">
<style type="text/css">
	.st0{fill:#000100;}
</style>
<g>
	<path class="st0" d="M282.6,235.32c0.89,0.89,2.1,1.39,3.36,1.39c1.27,0,2.47-0.5,3.35-1.42l43.55-43.54l35.56-18.43
		c0.87-0.44,1.57-1.15,2.02-2.02l18.97-36.6c0.97-1.83,0.62-4.08-0.85-5.55l-17.69-17.7c-1.46-1.46-3.67-1.84-5.55-0.85
		l-36.63,18.97c-0.87,0.45-1.57,1.16-2.02,2.03l-18.43,35.56l-43.51,43.55c-1.86,1.85-1.86,4.86,0,6.72L282.6,235.32z
		 M315.49,173.36c0.35-0.35,0.63-0.74,0.85-1.17l18.08-34.87l32.19-16.68l12.78,12.78l-16.68,32.18l-34.87,18.08
		c-0.43,0.22-0.82,0.5-1.17,0.85l-40.7,40.7l-11.15-11.16L315.49,173.36z"/>
	<path class="st0" d="M208.72,255.44c-1.78-1.78-4.94-1.78-6.72,0l-83.13,83.17c-5.69,5.67-8.82,13.23-8.82,21.27
		c0,8.04,3.14,15.6,8.84,21.33c5.7,5.63,13.25,8.73,21.27,8.73c7.99,0,15.53-3.1,21.29-8.75l12.47-12.48l-6.72-6.73l-12.43,12.45
		c-7.9,7.75-21.4,7.71-29.17,0.04c-3.88-3.9-6.04-9.08-6.04-14.58s2.16-10.66,6.04-14.55l79.77-79.81l29.11,29.11l-55.86,55.92
		l6.72,6.72L244.56,298c1.85-1.86,1.85-4.87,0-6.73L208.72,255.44z"/>
	<path class="st0" d="M338.5,279.27l-3.96-0.39c-5.4,0-10.74,0.85-16.24,2.62l-83.91-83.93l-6.72,6.72l86.01,86.03
		c1.32,1.32,3.27,1.77,5.01,1.1c5.46-2.04,10.65-3.03,15.33-3.05l3.64,0.37c23.98,1.64,42.78,21.64,42.78,45.57
		c0,4.44-0.69,8.86-2.04,13.19l-28.52-28.52c-2.08-2.12-4.72-3.75-7.71-4.85c-8.47-3.33-17.15-0.97-22.92,4.85
		c-5.93,5.96-7.86,14.94-4.89,22.92c1.15,2.94,2.79,5.52,4.9,7.67l28.57,28.55c-4.33,1.39-8.77,2.08-13.26,2.08
		c-23.97,0-43.97-18.82-45.57-43.02l-0.33-2.88c0-5.15,1-10.51,2.97-15.9c0.63-1.75,0.18-3.7-1.11-5L186.59,209.48
		c-0.91-0.91-2.12-1.39-3.36-1.39c-0.56,0-1.11,0.09-1.67,0.3c-5.26,1.97-10.57,2.97-15.31,2.99l-3.6-0.35
		c-24-1.58-42.8-21.6-42.8-45.57c0-4.44,0.69-8.86,2.06-13.21l28.52,28.52c2.14,2.16,4.7,3.75,7.77,4.87
		c8.64,3.36,17.11,0.91,22.83-4.85c5.98-6,7.88-14.73,4.92-22.83c-1.15-3.05-2.8-5.67-4.92-7.78l-28.52-28.52
		c4.35-1.38,8.79-2.06,13.26-2.06c23.91,0,43.92,18.8,45.57,42.93l0.3,2.94c0,5.11-1,10.46-2.99,15.9c-0.65,1.75-0.22,3.7,1.1,5
		l6.52,6.52l6.72-6.72l-4.44-4.44c1.73-5.5,2.6-11.02,2.58-16.7l-0.32-3.25c-1.97-28.98-26.16-51.68-55.04-51.68
		c-8.14,0-16.14,1.86-23.8,5.54c-1.39,0.67-2.36,1.97-2.62,3.49c-0.26,1.52,0.22,3.06,1.32,4.16l33.63,33.63
		c1.17,1.17,2.08,2.62,2.73,4.38c1.65,4.53,0.61,9.44-2.75,12.78c-3.14,3.18-7.17,4.81-12.76,2.66c-1.8-0.65-3.21-1.5-4.35-2.66
		l-33.64-33.64c-1.06-1.08-2.64-1.62-4.16-1.32c-1.52,0.26-2.82,1.25-3.49,2.62c-3.68,7.69-5.54,15.66-5.54,23.74
		c0,28.96,22.7,53.15,51.51,55.04l3.92,0.37c5.39,0,10.81-0.85,16.2-2.56l99.76,99.76c-1.71,5.48-2.56,11-2.55,16.76l0.35,3.2
		c1.91,29,26.1,51.72,55.05,51.72c8.17,0,16.18-1.88,23.8-5.59c1.39-0.67,2.36-1.97,2.6-3.49c0.26-1.5-0.22-3.06-1.32-4.14
		l-33.63-33.61c-1.19-1.21-2.12-2.69-2.77-4.37c-1.65-4.46-0.58-9.49,2.75-12.84c3.18-3.18,7.36-4.79,12.78-2.67
		c1.8,0.67,3.21,1.54,4.35,2.67l33.64,33.64c1.08,1.08,2.71,1.67,4.16,1.32c1.52-0.26,2.82-1.24,3.49-2.62
		c3.66-7.65,5.52-15.64,5.52-23.72C389.96,305.41,367.28,281.22,338.5,279.27z"/>
</g>
</svg>
