<?xml version="1.0" encoding="utf-8"?>
<!-- Generator: Adobe Illustrator 24.2.1, SVG Export Plug-In . SVG Version: 6.00 Build 0)  -->
<svg version="1.1" id="Layer_1" xmlns="http://www.w3.org/2000/svg" xmlns:xlink="http://www.w3.org/1999/xlink" x="0px" y="0px"
	 viewBox="0 0 500 500" style="enable-background:new 0 0 500 500;" xml:space="preserve">
<style type="text/css">
	.st0{fill:#1D1D1B;}
</style>
<g>
	<path class="st0" d="M175.04,152.53l-4.24-3.31c6.97-1.06,16.98-0.95,27.05,5.26c17.72,10.93,18.76,30.15,18.8,30.97l9.51-0.35
		c-0.04-1.02-1.17-25.06-23.33-38.71c-11.98-7.38-23.8-7.82-32.38-6.71l2.82-3.6l-7.47-5.87l-13.23,16.85l16.59,12.99L175.04,152.53
		z"/>
	
		<rect x="439.54" y="247.4" transform="matrix(0.5273 -0.8497 0.8497 0.5273 -34.1295 518.6322)" class="st0" width="19.02" height="85.18"/>
	<path class="st0" d="M430.02,332.9l14.81,0.11c-5.7,5.29-16.79,13.97-28.59,13.97v5.72c14.23,0,26.97-10.22,33.09-16.03
		l-0.18,16.22l5.72,0.07l0.26-25.56l-25.06-0.22L430.02,332.9z"/>
	<path class="st0" d="M366.52,260.63H166.16c-21.85,0-39.63,19.28-39.63,42.97c0,19.04,11.63,35.04,27.53,40.61v14.77
		c0,8.62,7.49,15.64,16.68,15.64c9.21,0,16.7-7.02,16.7-15.64v-12.52h135.37v-9.51H187.45h-21.29c-16.61,0-30.11-14.95-30.11-33.35
		c0-18.45,13.5-33.46,30.11-33.46h200.36c16.59,0,30.08,15.01,30.08,33.46c0,18.39-13.49,33.35-30.08,33.35h-14.45h-13.19v9.51
		h13.19v12.52c0,8.62,7.49,15.64,16.68,15.64c9.21,0,16.7-7.02,16.7-15.64v-17.96c12.24-7.3,20.66-21.25,20.66-37.41
		C406.11,279.92,388.35,260.63,366.52,260.63z M163.58,346.46h2.58h11.78v12.52c0,3.38-3.23,6.13-7.19,6.13s-7.17-2.75-7.17-6.13
		V346.46z M375.94,358.98c0,3.38-3.23,6.13-7.19,6.13c-3.96,0-7.17-2.75-7.17-6.13v-12.52h4.94h9.42V358.98z"/>
	<path class="st0" d="M175.43,220.32c0.61-8.99-3.08-17.85-10.22-24.39l-28.44-24.84c-26.21-21.44-39.5-32.9-39.5-32.9
		c-18.45-16.07-43.38-17.13-64.32-2.6c-10.46,7.24-18.06,17.37-21.4,28.5c-3.45,11.54-1.97,22.8,4.2,31.68l28.53,41.11l7.9-5.28
		l-28.63-41.26c-4.48-6.46-5.5-14.81-2.9-23.52c2.73-9.07,9.03-17.39,17.72-23.43c8.34-5.78,16.98-8.71,25.71-8.71
		c9.59,0,18.89,3.7,26.94,10.7c0,0,13.36,11.5,39.61,32.97l28.24,24.67c4.9,4.5,7.47,10.57,7.06,16.68
		c-0.43,6.34-4.05,12.17-10.2,16.44c-30.63,21.51-30.63,21.53-47.52,32.86c-10.87,7.51-25.88,6-32.25-3.16l-14.62-21.07l-7.89,5.29
		l14.71,21.2c5.39,7.78,14.32,12.24,24.54,12.24c7.38,0,14.6-2.32,20.88-6.65c16.87-11.35,16.87-11.33,47.6-32.92
		C169.74,237.99,174.8,229.59,175.43,220.32z"/>
</g>
</svg>
