<?xml version="1.0" encoding="utf-8"?>
<!-- Generator: Adobe Illustrator 27.0.0, SVG Export Plug-In . SVG Version: 6.00 Build 0)  -->
<svg version="1.1" id="Layer_1" xmlns="http://www.w3.org/2000/svg" xmlns:xlink="http://www.w3.org/1999/xlink" x="0px" y="0px"
	 viewBox="0 0 500 500" style="enable-background:new 0 0 500 500;" xml:space="preserve">
<style type="text/css">
	.st0{fill:#1D1D1B;}
</style>
<path class="st0" d="M388,230.6v-78.8h-40.5v-40.5h-78.8v40.5h-37.3v-40.5h-78.8v40.5H112v34.3l9.6-0.1v-24.6h147V221h-147v-18.6
	l-9.6,0.1v28.1h40.5V268H112v78.8h40.5v40.5h78.8v-40.5h37.3v40.5h39.5l-0.1-9.6h-29.8v-30.9h59.5v30.9h-13.4l0.1,9.6h22.9v-40.5
	H388V268h-40.5v-37.3H388z M347.4,161.5h30.9V221h-30.9V161.5z M221.7,151.9h-59.5V121h59.5V151.9z M152.6,337.1h-30.9v-59.5h30.9
	V337.1z M221.7,377.6h-59.5v-147h59.5V377.6z M278.3,121h59.5v147h-59.5V121z M231.3,230.6h37.3V268h-37.3V230.6z M378.3,277.6v59.5
	h-147v-59.5H378.3z"/>
</svg>
