<?xml version="1.0" encoding="utf-8"?>
<!-- Generator: Adobe Illustrator 24.2.1, SVG Export Plug-In . SVG Version: 6.00 Build 0)  -->
<svg version="1.1" id="Layer_1" xmlns="http://www.w3.org/2000/svg" xmlns:xlink="http://www.w3.org/1999/xlink" x="0px" y="0px"
	 viewBox="0 0 500 500" style="enable-background:new 0 0 500 500;" xml:space="preserve">
<style type="text/css">
	.st0{fill:#000100;}
</style>
<g>
	<polygon class="st0" points="245.43,344.2 261.63,325.8 245.43,307.45 238.3,313.73 244.76,321.05 172.03,321.05 178.48,313.73 
		171.34,307.45 155.16,325.8 171.34,344.2 178.48,337.92 172.01,330.56 244.78,330.56 238.3,337.92 	"/>
	<path class="st0" d="M334.94,221.43V106.67c-29.69,2.45-53.09,27.07-53.09,57.37C281.85,194.36,305.26,218.97,334.94,221.43z
		 M318.14,145.66l7.13,6.28l-10.66,12.11l10.66,12.08l-7.13,6.28l-16.2-18.36L318.14,145.66z"/>
	<path class="st0" d="M397.56,164.03c0-30.29-23.43-54.91-53.11-57.36v114.75C374.14,218.97,397.56,194.35,397.56,164.03z
		 M361.15,182.41l-7.13-6.28l10.66-12.11l-10.66-12.08l7.13-6.28l16.2,18.36L361.15,182.41z"/>
	<path class="st0" d="M352.34,280.16H143.53c-22.66,0-41.09,20.01-41.09,44.59c0,18.87,10.96,34.94,26.32,41.37v16.35
		c0,8.88,7.71,16.11,17.18,16.11c9.49,0,17.2-7.23,17.2-16.11v-13.25h134.02v-9.51H163.15h-19.62c-17.41,0-31.58-15.68-31.58-34.96
		c0-19.34,14.17-35.07,31.58-35.07h208.81c17.41,0,31.56,15.74,31.56,35.07c0,19.28-14.16,34.96-31.56,34.96h-17.41h-22.2v9.51h22.2
		v13.25c0,8.88,7.71,16.11,17.18,16.11c9.49,0,17.2-7.23,17.2-16.11v-17.33c14.17-7.02,24.09-22.44,24.09-40.39
		C393.42,300.17,374.99,280.16,352.34,280.16z M143.54,369.22h10.11v13.25c0,3.64-3.45,6.59-7.69,6.59c-4.24,0-7.67-2.95-7.67-6.59
		v-13.25H143.54z M359.81,382.47c0,3.64-3.46,6.59-7.69,6.59c-4.24,0-7.67-2.95-7.67-6.59v-13.25h7.89h7.47V382.47z"/>
	<path class="st0" d="M137.78,269.91c11.46,0.18,16.74,0.26,25.36,0.26c7.3,0,17.02-0.06,34.96-0.17c10.81,0,20.06-4.14,26.08-11.67
		c5.85-7.3,7.95-17.02,5.74-26.77l-9.6-38.18c-9.72-33.94-14.29-51.64-14.29-51.64c-6.35-25.25-26.27-40.31-53.3-40.31
		c-27.74,0-50.29,18.45-50.29,41.11v13.78h9.51v-13.78c0-17.43,18.3-31.6,40.78-31.6c22.39,0,38.86,12.37,44.08,33.14
		c0,0,4.59,17.78,14.32,51.76l9.53,37.92c1.54,6.82,0.11,13.62-3.9,18.65c-4.18,5.2-10.79,8.08-18.71,8.08
		c-39.03,0.24-38.96,0.24-60.19-0.09c-14.29,0-25.92-9.88-25.92-22.05V171.9h-9.51v66.45C102.43,255.76,118.31,269.91,137.78,269.91
		z"/>
</g>
</svg>
