<?xml version="1.0" encoding="utf-8"?>
<!-- Generator: Adobe Illustrator 24.2.1, SVG Export Plug-In . SVG Version: 6.00 Build 0)  -->
<svg version="1.1" id="Layer_1" xmlns="http://www.w3.org/2000/svg" xmlns:xlink="http://www.w3.org/1999/xlink" x="0px" y="0px"
	 viewBox="0 0 500 500" style="enable-background:new 0 0 500 500;" xml:space="preserve">
<style type="text/css">
	.st0{fill:#000100;}
</style>
<g>
	<path class="st0" d="M306.37,168.76h32.92c1.56,0.2,3.2-0.15,4.48-1.06c0.93-0.87,1.49-2.1,1.45-3.38
		c0.09-1.34-0.45-2.62-1.43-3.49c-1.21-0.99-2.79-1.49-4.33-1.32H315.6l22.27-24.91l2.1-2.29l1.36-1.65
		c0.35-0.5,0.69-1.11,0.87-1.67c0.24-0.67,0.43-1.34,0.43-2.06c0.15-1.62-0.67-3.21-2.14-4.03c-1.82-0.87-3.86-1.28-5.89-1.19
		h-27.98c-1.49-0.09-2.97,0.37-4.11,1.28c-0.96,0.84-1.52,2.04-1.47,3.29c0,1.93,0.65,3.16,1.93,3.53c1.8,0.56,3.7,0.76,5.65,0.71
		h17.98c-0.74,1.02-1.71,2.3-2.94,3.68l-4.62,5.31l-6.13,6.8l-7.24,8.03c-2.51,2.82-4.16,4.72-4.96,5.65
		c-1.8,2.19-1.58,5.41,0.5,7.3C302.71,168.4,304.55,168.91,306.37,168.76z"/>
	<path class="st0" d="M380.59,235.53c-1.1-0.93-2.6-1.39-4.07-1.3h-22.48l20.97-23.45l1.97-2.15l1.32-1.54
		c0.3-0.5,0.61-1.08,0.84-1.63c0.22-0.61,0.37-1.21,0.37-1.93c0.15-1.54-0.63-3.03-1.99-3.79c-1.73-0.82-3.68-1.17-5.61-1.06h-26.34
		c-1.37-0.11-2.79,0.3-3.86,1.17c-0.93,0.82-1.43,1.93-1.39,3.1c0,1.86,0.59,2.97,1.82,3.34c1.71,0.46,3.51,0.71,5.33,0.6h16.96
		c-0.69,1.04-1.6,2.19-2.77,3.53l-4.36,4.96l-5.76,6.45l-6.84,7.58c-2.43,2.64-3.94,4.44-4.7,5.29c-1.73,2.1-1.45,5.07,0.45,6.91
		c1.43,1.02,3.16,1.54,4.96,1.39h30.95c1.5,0.19,3.03-0.17,4.24-1.02c0.93-0.84,1.39-1.95,1.37-3.2
		C382.06,237.57,381.54,236.33,380.59,235.53z"/>
	<path class="st0" d="M275.08,227.64h27.57c1.34,0.15,2.67-0.15,3.75-0.93c0.8-0.71,1.26-1.73,1.24-2.8
		c0.09-1.11-0.37-2.13-1.25-2.91c-0.99-0.82-2.32-1.23-3.59-1.11h-20L301.45,199l1.75-1.93l1.15-1.37c0.3-0.41,0.56-0.93,0.76-1.38
		c0.2-0.58,0.35-1.13,0.35-1.75c0.09-1.38-0.57-2.71-1.82-3.38c-1.52-0.72-3.23-1.06-4.96-0.97h-23.39
		c-1.24-0.09-2.47,0.24-3.47,1.02c-0.82,0.71-1.24,1.73-1.21,2.81c0,1.65,0.52,2.62,1.62,2.97c1.5,0.41,3.12,0.61,4.7,0.5h15.09
		c-0.61,0.93-1.43,1.95-2.45,3.14l-3.88,4.42l-5.15,5.74l-6.02,6.69c-2.16,2.41-3.53,3.94-4.2,4.77c-1.52,1.82-1.28,4.5,0.43,6.08
		C272,227.29,273.54,227.73,275.08,227.64z"/>
	<path class="st0" d="M222.26,129.6c-11.67,15.96-19.38,34.37-22.48,53.89c-5.18,32.94,2.73,65.91,22.31,92.85
		c18.5,25.47,45.39,42.52,76.04,48.75v-9.72c-27.53-6.04-51.63-21.62-68.35-44.62c-18.08-24.89-25.39-55.34-20.6-85.77
		c3.49-22.01,13.34-42.49,28.44-59.21c1.34-1.49,1.62-3.64,0.67-5.41c-0.91-1.77-2.81-2.66-4.83-2.51
		c-19.02,2.56-36.45,9.27-51.94,18.69l6.65,6.67C198.61,137.12,210.05,132.5,222.26,129.6z"/>
	<path class="st0" d="M358.65,312.08c-14.77,4.85-29.74,6.61-44.36,5.59v9.18c11.43,0.72,22.94,0.35,34.48-2.21
		c-27.08,34.98-72.53,53.54-117.02,46.46c-32.6-5.15-61.23-22.66-80.61-49.36c-19.39-26.68-27.21-59.3-22.05-91.88
		c4.98-31.6,21.64-58.74,45.51-77.36l-6.58-6.58c-25.23,20.04-43.02,48.8-48.34,82.44c-5.55,35.09,2.88,70.24,23.76,98.96
		c20.88,28.74,51.7,47.61,86.81,53.17c6.95,1.1,14.01,1.65,20.99,1.65c45.63,0,88.89-24.17,112.93-63.05
		c1.06-1.69,0.95-3.87-0.3-5.43C362.62,312.08,360.47,311.43,358.65,312.08z"/>
</g>
</svg>
