<?xml version="1.0" encoding="utf-8"?>
<!-- Generator: Adobe Illustrator 24.2.1, SVG Export Plug-In . SVG Version: 6.00 Build 0)  -->
<svg version="1.1" id="Layer_1" xmlns="http://www.w3.org/2000/svg" xmlns:xlink="http://www.w3.org/1999/xlink" x="0px" y="0px"
	 viewBox="0 0 500 500" style="enable-background:new 0 0 500 500;" xml:space="preserve">
<style type="text/css">
	.st0{fill:#1D1D1B;}
</style>
<g>
	<path class="st0" d="M398.99,283.17c0-18.85-13.34-34.2-29.74-34.2h-238.5c-16.4,0-29.76,15.34-29.76,34.2
		c0,18.82,13.36,34.13,29.76,34.13h238.5C385.65,317.3,398.99,302,398.99,283.17z M369.25,307.79h-238.5
		c-11.17,0-20.25-11.03-20.25-24.61c0-13.62,9.09-24.69,20.25-24.69h238.5c11.15,0,20.23,11.07,20.23,24.69
		C389.48,296.76,380.4,307.79,369.25,307.79z"/>
	<path class="st0" d="M168.43,104.15l19.22-16.94v129.53c0,2.62,2.14,4.76,4.76,4.76s4.76-2.13,4.76-4.75V87.21l19.22,16.94
		c0.89,0.8,2.03,1.19,3.14,1.19c1.32,0,2.62-0.54,3.57-1.62c1.74-1.97,1.54-4.98-0.43-6.71l-26.2-23.1
		c-0.51-0.84-1.26-1.51-2.16-1.91l-1.89-1.67L190.52,72c-0.9,0.4-1.65,1.07-2.16,1.91l-26.2,23.1c-1.97,1.73-2.18,4.74-0.43,6.71
		C163.47,105.71,166.48,105.9,168.43,104.15z"/>
	<path class="st0" d="M303.53,211.97c0.51,0.85,1.27,1.53,2.18,1.92l1.87,1.65l1.87-1.65c0.92-0.4,1.67-1.08,2.18-1.92l26.21-23.09
		c1.97-1.73,2.18-4.74,0.43-6.71c-1.71-1.99-4.78-2.18-6.71-0.43l-19.22,16.93V69.13c0-2.62-2.14-4.76-4.76-4.76
		s-4.76,2.14-4.76,4.76v129.54l-19.26-16.93c-1.99-1.74-5-1.56-6.71,0.43c-1.74,1.97-1.54,4.98,0.43,6.71L303.53,211.97z"/>
	<path class="st0" d="M151.78,400.01c0-2.6,2.47-3.9,6.09-3.9c3.83,0,9.87,1.91,14.94,4.92l4.18-8.97
		c-4.79-3.14-11.52-5.2-18.22-5.2c-11.09,0-18.56,5.48-18.56,14.17c0,17,25.54,11.72,25.54,20.77c0,2.94-2.67,4.59-7.11,4.59
		c-5.07,0-12.06-2.83-17-7.21l-4.31,8.84c5.41,4.59,13.28,7.6,21.16,7.6c10.62,0,18.78-5.05,18.78-14.45
		C177.32,403.91,151.78,408.85,151.78,400.01z"/>
	<path class="st0" d="M225.27,403.99c0-10.63-7.11-16.65-19.65-16.65H184.8v47.95h10.83V421.6h9.99h1.02l7.62,13.7h12.26
		l-10.22-15.83C222.13,416.73,225.27,411.38,225.27,403.99z M205.62,412.55L205.62,412.55l-9.99,0v-16.24h9.99
		c5.96,0,9.38,2.68,9.38,8.01C215,409.8,211.58,412.55,205.62,412.55z"/>
	<polygon class="st0" points="281.02,423.51 270.88,387.34 260.25,387.34 250.26,423.51 240.19,387.34 228.54,387.34 244.37,435.29 
		255.53,435.29 265.4,401.11 275.06,435.29 275.06,435.29 286.22,435.29 302.1,387.34 291.01,387.34 	"/>
	<polygon class="st0" points="332.82,416.65 318.85,387.34 306.72,387.34 306.72,435.29 316.51,435.29 316.51,402.95 329.25,430.43 
		336.31,430.43 349.05,402.95 349.05,435.29 358.78,435.29 358.78,387.34 346.72,387.34 	"/>
	<path class="st0" d="M71.02,313.26c0-17.5,9.27-32.27,20.25-32.27c2.62,0,4.76-2.14,4.76-4.76s-2.14-4.76-4.76-4.76
		c-16.68,0-29.76,18.35-29.76,41.78c0,23.39,13.08,41.71,29.76,41.71h273.05v-9.51H91.27C80.29,345.45,71.02,330.7,71.02,313.26z"/>
	<path class="st0" d="M408.72,271.48c-2.62,0-4.76,2.14-4.76,4.76s2.14,4.76,4.76,4.76c10.98,0,20.25,14.77,20.25,32.27
		c0,17.44-9.27,32.19-20.25,32.19h-28.14v9.51h28.14c16.68,0,29.76-18.32,29.76-41.71C438.49,289.83,425.41,271.48,408.72,271.48z"
		/>
</g>
</svg>
