<?xml version="1.0" encoding="utf-8"?>
<!-- Generator: Adobe Illustrator 24.2.1, SVG Export Plug-In . SVG Version: 6.00 Build 0)  -->
<svg version="1.1" id="Layer_1" xmlns="http://www.w3.org/2000/svg" xmlns:xlink="http://www.w3.org/1999/xlink" x="0px" y="0px"
	 viewBox="0 0 500 500" style="enable-background:new 0 0 500 500;" xml:space="preserve">
<style type="text/css">
	.st0{fill:#1D1D1B;}
</style>
<g>
	<polygon class="st0" points="447.68,288.7 447.68,345.13 281.62,345.13 281.62,364.16 466.7,364.16 466.7,288.7 	"/>
	<rect x="294.85" y="283.9" class="st0" width="135.87" height="9.51"/>
	<path class="st0" d="M241.3,283.9H68.2c-19.25,0-34.91,18.04-34.91,40.22c0,22.14,15.66,40.15,34.91,40.15h123.41l-0.11-9.51H68.2
		c-14.01,0-25.39-13.75-25.39-30.63c0-16.92,11.39-30.71,25.39-30.71h173.1c13.97,0,25.34,13.78,25.34,30.71
		c0,16.89-11.37,30.63-25.34,30.63h-33.64l0.11,9.51h33.53c19.21,0,34.85-18,34.85-40.15C276.16,301.94,260.51,283.9,241.3,283.9z"
		/>
	<path class="st0" d="M42.81,170.6c0-13.99,14.81-25.36,33.01-25.36c18.45,0,31.47,9.77,35.74,26.84c0,0,3.81,14.77,11.91,42.91
		l7.88,31.38c1.23,5.43,0.09,10.81-3.08,14.79c-3.31,4.14-8.58,6.41-14.88,6.41c-32.32,0.2-32.27,0.22-49.88-0.09
		c-11.41,0-20.7-7.84-20.7-17.48v-47.22l-9.51,0.11V250c0,14.88,13.54,26.99,30.11,26.99c9.57,0.17,13.95,0.24,21.16,0.24
		c6.04,0,14.08-0.06,28.85-0.15c9.21,0,17.13-3.55,22.27-9.98c5-6.25,6.8-14.56,4.91-22.91l-7.95-31.66
		c-8.08-28.09-11.85-42.78-11.85-42.78c-5.35-21.31-22.16-34.02-44.98-34.02c-23.44,0-42.52,15.64-42.52,34.87v16.13l9.51-0.11
		V170.6z"/>
	<polygon class="st0" points="383.76,326.46 383.77,302.44 359.74,302.44 359.74,308.16 373.98,308.16 350.32,331.87 354.37,335.88 
		378.05,312.16 378.03,326.46 	"/>
</g>
</svg>
